<?xml version="1.0" standalone="yes"?>

<svg version="1.1" viewBox="0.0 0.0 960.0 720.0" fill="none" stroke="none" stroke-linecap="square" stroke-miterlimit="10" xmlns="http://www.w3.org/2000/svg" xmlns:xlink="http://www.w3.org/1999/xlink"><clipPath id="p.0"><path d="m0 0l960.0 0l0 720.0l-960.0 0l0 -720.0z" clip-rule="nonzero"></path></clipPath><g clip-path="url(#p.0)"><path fill="#000000" fill-opacity="0.0" d="m0 0l960.0 0l0 720.0l-960.0 0z" fill-rule="evenodd"></path><g filter="url(#shadowFilter-p.1)"><use xlink:href="#p.1" transform="matrix(1.0 0.0 0.0 1.0 0.0 2.0)"></use></g><defs><filter id="shadowFilter-p.1" filterUnits="userSpaceOnUse"><feGaussianBlur in="SourceAlpha" stdDeviation="2.0" result="blur"></feGaussianBlur><feComponentTransfer in="blur" color-interpolation-filters="sRGB"><feFuncR type="linear" slope="0" intercept="0.0"></feFuncR><feFuncG type="linear" slope="0" intercept="0.0"></feFuncG><feFuncB type="linear" slope="0" intercept="0.0"></feFuncB><feFuncA type="linear" slope="0.5" intercept="0"></feFuncA></feComponentTransfer></filter></defs><g id="p.1"><path fill="#b7b7b7" d="m21.429497 176.27277c3.6929436 0 6.7542095 3.2740936 9.183798 9.822296c2.6482487 7.1196136 3.9723568 19.219894 3.9723568 36.30081c0 16.41684 -0.9505615 28.656113 -2.851715 36.717804c-0.7835388 3.4131165 -1.8586254 6.092621 -3.2252617 8.038544c-1.3605518 1.9459229 -2.6664352 3.181427 -3.9176922 3.7065125c-1.2512188 0.52508545 -2.7697163 0.7876587 -4.5554543 0.7876587l-4.591898 0l0 -95.37363zm-13.374815 -2.131256l-0.054665565 2.131256l2.9610462 0.85713196c0.3765726 0.092666626 0.60132027 0.7567444 0.67420673 1.9922485l0 89.952835c-0.07288647 1.1428528 -0.29763412 1.7605896 -0.67420673 1.8532715l-2.9063807 0.99612427l-0.054665565 1.9922485l11.251973 -0.13897705l1.0568657 0c2.3506145 0 4.403595 -0.37838745 6.1589756 -1.1351318c3.954134 -1.8995972 6.8666 -6.455536 8.737362 -13.667816c2.125866 -8.262482 3.18882 -20.694794 3.18882 -37.296967c0 -16.78749 -1.5215225 -28.903198 -4.5645676 -36.347153c-3.0430431 -7.459381 -7.082201 -11.189072 -12.11751 -11.189072z" fill-rule="evenodd"></path><path fill="#b7b7b7" d="m57.59593 176.8519l8.728252 66.323715l-16.73674 0l8.008488 -66.323715zm-0.3917656 -2.7103882l-12.090179 94.93347c-0.1883049 1.1428528 -0.4130516 1.7605896 -0.6742058 1.8532715l-2.915493 0.99612427l-0.05466461 1.9922485l11.251972 -0.13897705c0.036445618 -1.328186 0.054668427 -2.0386047 0.054668427 -2.131256l-6.486969 -0.8571472l2.9610443 -24.764252l17.465614 0l3.0794907 23.188965c0 1.0502014 -0.14880371 1.6216125 -0.44643402 1.7142944l-2.9154968 0.99612427c-0.03643799 0.47875977 -0.05466461 1.1428223 -0.05466461 1.9922485l11.197311 -0.13897705c0.036445618 -1.328186 0.05466461 -2.0386047 0.05466461 -2.131256l-3.8630295 -0.5791626l-12.873711 -96.92572z" fill-rule="evenodd"></path><path fill="#b7b7b7" d="m80.71468 174.14151l-0.06377411 2.131256l2.9701538 0.85713196c0.37657166 0.092666626 0.601326 0.7104187 0.6742096 1.8532562l0 90.09183c-0.072883606 1.1428528 -0.29763794 1.7605896 -0.6742096 1.8532715l-2.9063797 0.99612427l-0.06377411 1.9922485l11.251976 -0.13897705c0.042526245 -1.328186 0.06377411 -2.0386047 0.06377411 -2.131256l-6.3867493 -0.8571472l-0.2824402 -92.66322l21.775078 95.65163l4.0907974 0l0 -96.50876l3.5805893 -0.99612427c-0.036445618 -1.328186 -0.05466461 -2.0386047 -0.05466461 -2.131256l-10.632431 0.13899231c0 0.8648529 0.018218994 1.5829926 0.05466461 2.154419l5.1476593 1.1351166c0.26119232 0.092666626 0.46772003 0.6100464 0.619545 1.5521088l0.2733307 90.670975l-21.775078 -95.65161z" fill-rule="evenodd"></path><path fill="#b7b7b7" d="m137.02605 174.14151c-5.4847565 0 -9.815468 4.934311 -12.992149 14.802948c-3.0187378 9.389862 -4.528122 22.486267 -4.528122 39.2892c0 7.582947 0.33407593 14.223816 1.0021973 19.922592c0.6742096 5.6987915 1.5063248 10.185242 2.4963913 13.459351c0.9900589 3.2740784 2.1927032 5.907257 3.6079178 7.899536c1.4213028 1.9922485 2.7636337 3.2972717 4.0270157 3.9150085c1.269455 0.61776733 2.7636414 0.92663574 4.4825745 0.92663574c1.7189331 0 3.9480896 -0.44787598 6.6874084 -1.3436279c2.745407 -0.91119385 4.4339447 -1.6524963 5.0656586 -2.2239075l-0.1639862 -1.9922485c-4.0331116 2.2702332 -7.8961334 3.405365 -11.589081 3.405365c-1.1601105 0 -2.21698 -0.25482178 -3.1705933 -0.76446533c-0.9475403 -0.52508545 -1.9801025 -1.6911011 -3.0977173 -3.4980469c-3.6929398 -5.976776 -5.5394287 -19.212173 -5.5394287 -39.706192c0 -16.895584 1.2299728 -29.798935 3.6899185 -38.710052c2.4660263 -8.926559 5.8067093 -13.389847 10.021996 -13.389847c2.6482544 0 5.4847717 2.6100159 8.509598 7.8300476l0.7288666 15.243103l1.0568695 -0.99612427l-0.6651001 -20.50174c-0.82606506 -0.75675964 -2.2200317 -1.5366669 -4.1819 -2.3397522c-1.9558258 -0.8185272 -3.7719269 -1.2277832 -5.4483337 -1.2277832z" fill-rule="evenodd"></path><path fill="#b7b7b7" d="m162.77281 174.14151l-11.251984 0.13899231l0.05467224 2.154419l2.9154816 0.6949768c0.37052917 0.092666626 0.5952759 0.7567444 0.6742096 1.9922485l0.05467224 0l0 89.952835l-0.05467224 0c-0.07896423 1.1428528 -0.30371094 1.7605896 -0.6742096 1.8532715l-2.9154816 0.99612427l-0.05467224 1.9922485l11.251984 -0.13897705c0.03643799 -1.328186 0.054656982 -2.0386047 0.054656982 -2.131256l-3.8083649 -0.5791626l0 -93.93733l3.8083649 -0.85713196c-0.03643799 -1.328186 -0.054656982 -2.0386047 -0.054656982 -2.131256z" fill-rule="evenodd"></path><path fill="#b7b7b7" d="m168.20735 174.14151l-0.06376648 2.131256l2.9701538 0.85713196c0.37657166 0.092666626 0.60131836 0.7104187 0.6742096 1.8532562l0 90.09183c-0.072891235 1.1428528 -0.29763794 1.7605896 -0.6742096 1.8532715l-2.9063873 0.99612427l-0.06376648 1.9922485l11.251968 -0.13897705c0.042526245 -1.328186 0.06378174 -2.0386047 0.06378174 -2.131256l-6.3867493 -0.8571472l-0.2824402 -92.66322l21.77507 95.65163l4.090805 0l0 -96.50876l3.5805817 -0.99612427c-0.03643799 -1.328186 -0.054656982 -2.0386047 -0.054656982 -2.131256l-10.632431 0.13899231c0 0.8648529 0.018218994 1.5829926 0.054656982 2.154419l5.1476593 1.1351166c0.2611847 0.092666626 0.46768188 0.6100464 0.6195526 1.5521088l0.27331543 90.670975l-21.77507 -95.65161z" fill-rule="evenodd"></path><path fill="#b7b7b7" d="m224.51874 174.14151c-5.4847717 0 -9.815491 4.934311 -12.992157 14.802948c-3.018753 9.389862 -4.528122 22.486267 -4.528122 39.2892c0 7.582947 0.33406067 14.223816 1.0021973 19.922592c0.6742096 5.6987915 1.5063477 10.185242 2.496399 13.459351c0.990036 3.2740784 2.192688 5.907257 3.6079102 7.899536c1.4213104 1.9922485 2.7636566 3.2972717 4.0270233 3.9150085c1.2694702 0.61776733 2.7636566 0.92663574 4.4825745 0.92663574c1.7189178 0 3.9480438 -0.44787598 6.6874084 -1.3436279c2.7454224 -0.91119385 4.4339905 -1.6524963 5.0656586 -2.2239075l0 -35.304688l2.2412872 -0.6949768c-0.03643799 -1.3281708 -0.05467224 -2.0463104 -0.05467224 -2.154419l-10.07666 0.16217041c0 0.84939575 0.018218994 1.5598145 0.05467224 2.1312408l4.0270233 0.6949768c0.44947815 0.20077515 0.67419434 0.8648529 0.67419434 1.9922638l-0.21865845 32.75644c-3.3224335 1.2200623 -5.843109 1.8301086 -7.5620575 1.8301086c-1.7189178 0 -3.0551758 -0.25482178 -4.008789 -0.76446533c-0.9475403 -0.52508545 -1.9801178 -1.6911011 -3.0977173 -3.4980469c-3.6929626 -5.976776 -5.5394287 -19.212173 -5.5394287 -39.706192c0 -16.895584 1.2299652 -29.798935 3.689911 -38.710052c2.4660187 -8.926559 5.8066864 -13.389847 10.022003 -13.389847c2.6482391 0 5.4847717 2.6100159 8.509598 7.8300476l0.7288666 15.243103l1.0568695 -0.99612427l-0.6651001 -20.50174c-0.8260498 -0.75675964 -2.2200165 -1.5366669 -4.1819 -2.3397522c-1.9558105 -0.8185272 -3.7719269 -1.2277832 -5.4483337 -1.2277832z" fill-rule="evenodd"></path><path fill="#b7b7b7" d="m267.9547 174.14151l-11.251953 0.13899231l0.054656982 2.154419l2.9154968 0.6949768c0.26116943 0.092666626 0.44641113 0.47103882 0.5557556 1.1351166l9.6302185 95.512634l3.471283 0l9.238434 -84.97218l8.445831 84.97218l3.4165955 0l11.087982 -96.64775l3.635254 -0.85713196c-0.036468506 -1.328186 -0.0546875 -2.0386047 -0.0546875 -2.131256l-10.969513 0.13899231l0.054656982 2.154419l5.2569885 1.1351166c0.34014893 0.092666626 0.5102234 0.6100464 0.5102234 1.5521088l-9.858002 91.25011l-9.848907 -96.23074l-0.2277832 1.1351166l0.17312622 -1.1351166l-0.8382263 0l-10.413757 95.929596l-9.293121 -92.802216l4.364105 -0.99612427c-0.03643799 -1.328186 -0.054656982 -2.0386047 -0.054656982 -2.131256z" fill-rule="evenodd"></path><path fill="#b7b7b7" d="m324.15567 174.14151l-11.251984 0.13899231l0.0546875 2.154419l2.9154663 0.6949768c0.37051392 0.092666626 0.59524536 0.7567444 0.67422485 1.9922485l0.054656982 0l0 89.952835l-0.054656982 0c-0.078948975 1.1428528 -0.30368042 1.7605896 -0.67422485 1.8532715l-2.9154663 0.99612427l-0.0546875 1.9922485l11.251984 -0.13897705c0.03643799 -1.328186 0.054656982 -2.0386047 0.054656982 -2.131256l-3.8083496 -0.5791626l0 -93.93733l3.8083496 -0.85713196c-0.03643799 -1.328186 -0.054656982 -2.0386047 -0.054656982 -2.131256z" fill-rule="evenodd"></path><path fill="#b7b7b7" d="m328.80667 174.14151l-0.06378174 1.7142639l-0.109313965 1.1351318l0.054656982 0l-0.5557556 17.652344l1.065979 1.1351166l0.8928528 -18.78746l9.630249 0l0 92.084076c-0.07897949 1.1428528 -0.30371094 1.7605896 -0.67422485 1.8532715l-2.9154663 0.99612427c-0.036468506 0.47875977 -0.0546875 1.1428223 -0.0546875 1.9922485l11.197327 -0.13897705c0.03643799 -1.328186 0.054656982 -2.0386047 0.054656982 -2.131256l-4.0816956 -0.5791626l0 -94.076324l9.79422 0l0.8928833 18.78746l1.120636 -1.1351166l-0.72888184 -20.50174l-25.410309 0l0 0.13899231l-0.10934448 -0.13899231z" fill-rule="evenodd"></path><path fill="#b7b7b7" d="m369.6693 174.14151l-11.251953 0.13899231l0.054656982 2.154419l2.906372 0.6949768c0.3765869 0.092666626 0.60131836 0.7104187 0.67422485 1.8532562l0 90.230804c-0.072906494 1.0502014 -0.29763794 1.6216125 -0.67422485 1.7142944l-2.906372 0.99612427l-0.054656982 1.9922485l11.251953 -0.13897705c0.036468506 -1.328186 0.0546875 -2.0386047 0.0546875 -2.131256l-4.1454773 -0.5791626l0 -45.265976l19.087372 0l0 43.273727c-0.072906494 1.1428528 -0.29458618 1.7605896 -0.6651001 1.8532715l-2.9154968 0.99612427c-0.03643799 0.47875977 -0.054656982 1.1428223 -0.054656982 1.9922485l11.197296 -0.13897705c0.03643799 -1.328186 0.054656982 -2.0386047 0.054656982 -2.131256l-4.09079 -0.5791626l0 -93.79834l3.5259094 -0.99612427c-0.03643799 -1.328186 -0.054656982 -2.0386047 -0.054656982 -2.131256l-10.632416 0.13899231c0 0.8648529 0.018218994 1.5829926 0.054656982 2.154419l2.9154968 0.6949768c0.37051392 0.092666626 0.5921936 0.7567444 0.6651001 1.9922485l0 43.852875l-19.087372 0l0 -45.70613l4.1454773 -0.99612427c-0.036468506 -1.328186 -0.0546875 -2.0386047 -0.0546875 -2.131256z" fill-rule="evenodd"></path><path fill="#b7b7b7" d="m413.05267 174.14151l-0.06378174 1.7142639l-0.10934448 1.1351318l0.0546875 0l-0.55578613 17.652344l1.065979 1.1351166l0.8928833 -18.78746l9.6302185 0l0 92.084076c-0.078948975 1.1428528 -0.30368042 1.7605896 -0.67419434 1.8532715l-2.9154968 0.99612427c-0.03643799 0.47875977 -0.054656982 1.1428223 -0.054656982 1.9922485l11.197296 -0.13897705c0.03643799 -1.328186 0.054656982 -2.0386047 0.054656982 -2.131256l-4.081665 -0.5791626l0 -94.076324l9.79422 0l0.8928528 18.78746l1.1206665 -1.1351166l-0.72888184 -20.50174l-25.41034 0l0 0.13899231l-0.109313965 -0.13899231z" fill-rule="evenodd"></path><path fill="#b7b7b7" d="m453.9153 174.14151l-11.251984 0.13899231l0.054656982 2.154419l2.9064026 0.6949768c0.3765869 0.092666626 0.60131836 0.7104187 0.67419434 1.8532562l0 90.230804c-0.07287598 1.0502014 -0.29760742 1.6216125 -0.67419434 1.7142944l-2.9064026 0.99612427l-0.054656982 1.9922485l11.251984 -0.13897705c0.03643799 -1.328186 0.054656982 -2.0386047 0.054656982 -2.131256l-4.145447 -0.5791626l0 -45.265976l19.087341 0l0 43.273727c-0.07287598 1.1428528 -0.29458618 1.7605896 -0.6651001 1.8532715l-2.9154968 0.99612427c-0.03643799 0.47875977 -0.054656982 1.1428223 -0.054656982 1.9922485l11.197296 -0.13897705c0.036468506 -1.328186 0.0546875 -2.0386047 0.0546875 -2.131256l-4.0908203 -0.5791626l0 -93.79834l3.52594 -0.99612427c-0.03643799 -1.328186 -0.054656982 -2.0386047 -0.054656982 -2.131256l-10.632446 0.13899231c0 0.8648529 0.018218994 1.5829926 0.054656982 2.154419l2.9154968 0.6949768c0.37051392 0.092666626 0.5922241 0.7567444 0.6651001 1.9922485l0 43.852875l-19.087341 0l0 -45.70613l4.145447 -0.99612427c-0.03643799 -1.328186 -0.054656982 -2.0386047 -0.054656982 -2.131256z" fill-rule="evenodd"></path><path fill="#b7b7b7" d="m481.39963 174.14151l-0.0546875 2.131256l2.9610596 0.85713196c0.3765869 0.092666626 0.60131836 0.7104187 0.67419434 1.8532562l0 90.09183c-0.07287598 1.1428528 -0.29760742 1.7605896 -0.67419434 1.8532715l-2.906372 0.99612427l-0.0546875 1.9922485l11.251984 -0.13897705l14.213013 0l0.8381958 -24.90326l-1.0568542 -0.71813965l-1.065979 22.772003l-16.736725 0l0 -45.127l14.158356 0l0.22775269 9.822296c0.5223694 -0.092666626 0.8017578 -0.13899231 0.8381958 -0.13899231l0 -24.324097l-0.8928528 0.27798462l-0.2277832 9.822311c0 0.5714264 -0.075927734 1.0270233 -0.22775269 1.3667755c-0.11340332 0.2522583 -0.23962402 0.3783722 -0.37872314 0.3783722c-0.039764404 0 -0.08053589 -0.010284424 -0.12237549 -0.030883789l-13.374817 0l0 -45.984116l15.224304 0l0.8928833 18.78746l1.120636 -1.1351166l-0.72888184 -20.0616l0.0546875 -0.44013977z" fill-rule="evenodd"></path><path fill="#b7b7b7" d="m537.87775 174.14151l-11.251953 0.13899231l0.054626465 2.154419l2.9155273 0.6949768c0.26116943 0.092666626 0.44641113 0.47103882 0.5557251 1.1351166l9.630249 95.512634l3.4712524 0l9.238464 -84.97218l8.445801 84.97218l3.416626 0l11.087952 -96.64775l3.635254 -0.85713196c-0.03643799 -1.328186 -0.054626465 -2.0386047 -0.054626465 -2.131256l-10.969543 0.13899231l0.054626465 2.154419l5.257019 1.1351166c0.34014893 0.092666626 0.5101929 0.6100464 0.5101929 1.5521088l-9.857971 91.25011l-9.848938 -96.23074l-0.22772217 1.1351166l0.1730957 -1.1351166l-0.8381958 0l-10.413818 95.929596l-9.293091 -92.802216l4.3641357 -0.99612427c-0.03643799 -1.328186 -0.0546875 -2.0386047 -0.0546875 -2.131256z" fill-rule="evenodd"></path><path fill="#b7b7b7" d="m593.52295 174.14151l-11.251953 0.13899231l0.054626465 2.154419l2.906372 0.6949768c0.3765869 0.092666626 0.6013794 0.7104187 0.6742554 1.8532562l0 90.230804c-0.07287598 1.0502014 -0.29766846 1.6216125 -0.6742554 1.7142944l-2.906372 0.99612427l-0.054626465 1.9922485l11.251953 -0.13897705c0.03643799 -1.328186 0.0546875 -2.0386047 0.0546875 -2.131256l-4.145508 -0.5791626l0 -45.265976l19.087402 0l0 43.273727c-0.07293701 1.1428528 -0.2946167 1.7605896 -0.6651001 1.8532715l-2.9155273 0.99612427c-0.03643799 0.47875977 -0.054626465 1.1428223 -0.054626465 1.9922485l11.197266 -0.13897705c0.03643799 -1.328186 0.0546875 -2.0386047 0.0546875 -2.131256l-4.0908203 -0.5791626l0 -93.79834l3.52594 -0.99612427c-0.03643799 -1.328186 -0.0546875 -2.0386047 -0.0546875 -2.131256l-10.632385 0.13899231c0 0.8648529 0.018188477 1.5829926 0.054626465 2.154419l2.9155273 0.6949768c0.3704834 0.092666626 0.5921631 0.7567444 0.6651001 1.9922485l0 43.852875l-19.087402 0l0 -45.70613l4.145508 -0.99612427c-0.03643799 -1.328186 -0.0546875 -2.0386047 -0.0546875 -2.131256z" fill-rule="evenodd"></path><path fill="#b7b7b7" d="m632.4233 174.14151l-11.252014 0.13899231l0.0546875 2.154419l2.9154663 0.6949768c0.37054443 0.092666626 0.5952759 0.7567444 0.6742554 1.9922485l0.054626465 0l0 89.952835l-0.054626465 0c-0.07897949 1.1428528 -0.30371094 1.7605896 -0.6742554 1.8532715l-2.9154663 0.99612427l-0.0546875 1.9922485l11.252014 -0.13897705c0.03643799 -1.328186 0.054626465 -2.0386047 0.054626465 -2.131256l-3.8083496 -0.5791626l0 -93.93733l3.8083496 -0.85713196c-0.03643799 -1.328186 -0.054626465 -2.0386047 -0.054626465 -2.131256z" fill-rule="evenodd"></path><path fill="#b7b7b7" d="m637.0742 174.14151l-0.06378174 1.7142639l-0.109313965 1.1351318l0.0546875 0l-0.55578613 17.652344l1.065979 1.1351166l0.8928833 -18.78746l9.630249 0l0 92.084076c-0.07897949 1.1428528 -0.30371094 1.7605896 -0.6742554 1.8532715l-2.9154663 0.99612427c-0.03643799 0.47875977 -0.0546875 1.1428223 -0.0546875 1.9922485l11.197327 -0.13897705c0.03643799 -1.328186 0.0546875 -2.0386047 0.0546875 -2.131256l-4.081726 -0.5791626l0 -94.076324l9.7942505 0l0.8928833 18.78746l1.1206055 -1.1351166l-0.72888184 -20.50174l-25.410278 0l0 0.13899231l-0.109375 -0.13899231z" fill-rule="evenodd"></path><path fill="#b7b7b7" d="m666.23846 174.14151l-0.06378174 1.7142639l-0.109313965 1.1351318l0.0546875 0l-0.55578613 17.652344l1.065979 1.1351166l0.8928833 -18.78746l9.630188 0l0 92.084076c-0.07891846 1.1428528 -0.3036499 1.7605896 -0.67419434 1.8532715l-2.9154663 0.99612427c-0.03643799 0.47875977 -0.0546875 1.1428223 -0.0546875 1.9922485l11.197327 -0.13897705c0.03643799 -1.328186 0.054626465 -2.0386047 0.054626465 -2.131256l-4.081665 -0.5791626l0 -94.076324l9.7942505 0l0.8928833 18.78746l1.1206055 -1.1351166l-0.72888184 -20.50174l-25.41034 0l0 0.13899231l-0.109313965 -0.13899231z" fill-rule="evenodd"></path><path fill="#b7b7b7" d="m707.65686 174.14151l-11.251953 0.13899231l0.0546875 2.154419l2.9154663 0.6949768c0.3704834 0.092666626 0.59521484 0.7567444 0.67419434 1.9922485l0.0546875 0l0 89.952835l-0.0546875 0c-0.07891846 1.1428528 -0.3036499 1.7605896 -0.67419434 1.8532715l-2.9154663 0.99612427l-0.0546875 1.9922485l11.251953 -0.13897705c0.036499023 -1.328186 0.0546875 -2.0386047 0.0546875 -2.131256l-3.8083496 -0.5791626l0 -93.93733l3.8083496 -0.85713196c-0.03643799 -1.328186 -0.0546875 -2.0386047 -0.0546875 -2.131256z" fill-rule="evenodd"></path><path fill="#b7b7b7" d="m713.14606 174.14151l-0.054626465 2.131256l2.9609985 0.85713196c0.3765869 0.092666626 0.60131836 0.7104187 0.67419434 1.8532562l0 90.09183c-0.07287598 1.1428528 -0.29760742 1.7605896 -0.67419434 1.8532715l-2.906372 0.99612427l-0.054626465 1.9922485l11.251953 -0.13897705l14.213013 0l0.8381958 -24.90326l-1.0568848 -0.71813965l-1.065979 22.772003l-16.736694 0l0 -45.127l14.158325 0l0.2277832 9.822296c0.52233887 -0.092666626 0.8017578 -0.13899231 0.8381958 -0.13899231l0 -24.324097l-0.8928833 0.27798462l-0.2277832 9.822311c0 0.5714264 -0.075927734 1.0270233 -0.22772217 1.3667755c-0.11340332 0.2522583 -0.23962402 0.3783722 -0.37872314 0.3783722c-0.039733887 0 -0.080566406 -0.010284424 -0.12237549 -0.030883789l-13.374817 0l0 -45.984116l15.224304 0l0.8928833 18.78746l1.1206055 -1.1351166l-0.7288208 -20.0616l0.054626465 -0.44013977z" fill-rule="evenodd"></path><path fill="#b7b7b7" d="m756.8046 176.27277c2.7636719 0 4.871277 2.0463104 6.322937 6.1389313c1.4577637 4.077179 2.1866455 10.100296 2.1866455 18.069336c0 4.077179 -0.33709717 8.277908 -1.0112915 12.602188c-0.66815186 4.308838 -1.97406 9.266327 -3.9177246 14.872452l-9.566467 0l0 -51.682907zm-13.320129 -2.131256l-0.0546875 2.131256l2.9610596 0.85713196c0.30371094 0.092666626 0.5101929 0.57141113 0.61950684 1.4362793l0 91.08794c-0.15185547 0.7567444 -0.3583374 1.1814575 -0.61950684 1.2741394l-2.906372 0.99612427l-0.0546875 1.9922485l11.251953 -0.13897705c0.03643799 -1.328186 0.0546875 -2.0386047 0.0546875 -2.131256l-3.9177246 -0.5791626l0 -40.9803l7.4436646 0l10.632385 43.829697l6.104309 -0.13897705c0.03643799 -1.328186 0.0546875 -2.0386047 0.0546875 -2.131256l-2.7423706 -0.44015503l-10.359131 -42.833588c1.4577637 -1.7142639 3.015747 -5.559784 4.673889 -11.53656c1.6642456 -5.976776 2.496399 -11.714188 2.496399 -17.212204c0 -8.4478 -1.0446777 -14.802948 -3.1341553 -19.06546c-2.0894165 -4.277939 -5.0565186 -6.416916 -8.901367 -6.416916z" fill-rule="evenodd"></path><path fill="#b7b7b7" d="m807.90826 173.86351c-3.4317627 0 -6.1741333 2.4246979 -8.227112 7.274063c-2.046936 4.8339386 -3.0703735 11.042374 -3.0703735 18.62532c0 4.3706055 0.36138916 8.123474 1.0841675 11.258575c0.72888184 3.1196594 1.6885376 5.536621 2.8790283 7.2509003c1.1965942 1.698822 2.5024414 3.165985 3.9177246 4.4015045c1.4212646 1.2355042 2.8395996 2.4015198 4.2547607 3.4980316c1.4213257 1.08107 2.727234 2.362915 3.9177246 3.84552c1.1965332 1.4671631 2.1593018 3.5520935 2.8881226 6.254776c0.72888184 2.7026672 1.0933228 5.9536133 1.0933228 9.752792c0 8.4478 -1.0447388 14.733459 -3.1341553 18.856964c-2.0894165 4.123535 -4.51593 6.185272 -7.279602 6.185272c-1.864685 0 -3.6747437 -1.3513489 -5.4301147 -4.054016c-1.7492676 -2.7026672 -3.1280518 -5.8532104 -4.1363525 -9.45163l-0.1184082 -8.13121l-1.0568848 0.71813965l-0.06378174 15.080948c3.0977173 5.791443 6.7542114 8.687164 10.969543 8.687164c4.2213745 0 7.619751 -2.3243103 10.195129 -6.9729004c2.5753174 -4.64859 3.862976 -11.57518 3.862976 -20.779724c0 -6.826187 -0.6923828 -12.370544 -2.0772705 -16.633057c-1.3787842 -4.277954 -3.0490723 -7.320389 -5.0109863 -9.127319c-1.9558105 -1.8069458 -3.9146729 -3.4208221 -5.876526 -4.8416595c-1.9558105 -1.4208374 -3.6261597 -3.413086 -5.0109863 -5.976776c-1.3787842 -2.5636902 -2.0681763 -6.023117 -2.0681763 -10.378281c0 -7.505722 0.8199463 -13.127289 2.4599 -16.864716c1.6460571 -3.7528534 3.6808472 -5.6292877 6.104309 -5.6292877c2.4296265 0 5.0231934 2.6100159 7.7807617 7.8300476l0.56481934 11.235413l1.065979 -1.1351166l-0.61950684 -17.791351c-3.1341553 -1.9922485 -6.420166 -2.988388 -9.858032 -2.988388z" fill-rule="evenodd"></path><path fill="#b7b7b7" d="m824.2067 174.14151l-0.06378174 1.7142639l-0.109375 1.1351318l0.0546875 0l-0.55578613 17.652344l1.065979 1.1351166l0.8928833 -18.78746l9.630249 0l0 92.084076c-0.07897949 1.1428528 -0.30371094 1.7605896 -0.67419434 1.8532715l-2.9155273 0.99612427c-0.03643799 0.47875977 -0.054626465 1.1428223 -0.054626465 1.9922485l11.197266 -0.13897705c0.03643799 -1.328186 0.0546875 -2.0386047 0.0546875 -2.131256l-4.081665 -0.5791626l0 -94.076324l9.794189 0l0.8928833 18.78746l1.1206665 -1.1351166l-0.72888184 -20.50174l-25.41034 0l0 0.13899231l-0.109313965 -0.13899231z" fill-rule="evenodd"></path><path fill="#b7b7b7" d="m868.5406 176.8519l8.7282715 66.323715l-16.736755 0l8.008484 -66.323715zm-0.39172363 -2.7103882l-12.09021 94.93347c-0.18829346 1.1428528 -0.4130249 1.7605896 -0.67419434 1.8532715l-2.9155273 0.99612427l-0.054626465 1.9922485l11.251953 -0.13897705c0.03643799 -1.328186 0.0546875 -2.0386047 0.0546875 -2.131256l-6.4869995 -0.8571472l2.9610596 -24.764252l17.465637 0l3.0794678 23.188965c0 1.0502014 -0.14880371 1.6216125 -0.44641113 1.7142944l-2.9155273 0.99612427c-0.03643799 0.47875977 -0.054626465 1.1428223 -0.054626465 1.9922485l11.197266 -0.13897705c0.03643799 -1.328186 0.0546875 -2.0386047 0.0546875 -2.131256l-3.863037 -0.5791626l-12.873718 -96.92572z" fill-rule="evenodd"></path><path fill="#b7b7b7" d="m905.0888 176.27277c2.7636108 0 4.871277 2.0463104 6.322998 6.1389313c1.4577026 4.077179 2.1865845 10.100296 2.1865845 18.069336c0 4.077179 -0.33709717 8.277908 -1.0112915 12.602188c-0.66815186 4.308838 -1.973999 9.266327 -3.9177246 14.872452l-9.566406 0l0 -51.682907zm-13.320129 -2.131256l-0.0546875 2.131256l2.9610596 0.85713196c0.3036499 0.092666626 0.5101929 0.57141113 0.61950684 1.4362793l0 91.08794c-0.15185547 0.7567444 -0.3583374 1.1814575 -0.61950684 1.2741394l-2.906372 0.99612427l-0.0546875 1.9922485l11.251953 -0.13897705c0.03643799 -1.328186 0.0546875 -2.0386047 0.0546875 -2.131256l-3.9176636 -0.5791626l0 -40.9803l7.4436035 0l10.632385 43.829697l6.104309 -0.13897705c0.036499023 -1.328186 0.0546875 -2.0386047 0.0546875 -2.131256l-2.7423706 -0.44015503l-10.359131 -42.833588c1.4577637 -1.7142639 3.015747 -5.559784 4.673889 -11.53656c1.6643066 -5.976776 2.496399 -11.714188 2.496399 -17.212204c0 -8.4478 -1.0447388 -14.802948 -3.1341553 -19.06546c-2.0894165 -4.277939 -5.0565186 -6.416916 -8.901367 -6.416916z" fill-rule="evenodd"></path><path fill="#b7b7b7" d="m939.4552 173.86351c-3.4317627 0 -6.1741333 2.4246979 -8.227112 7.274063c-2.046936 4.8339386 -3.0703735 11.042374 -3.0703735 18.62532c0 4.3706055 0.36138916 8.123474 1.0841675 11.258575c0.72888184 3.1196594 1.6885376 5.536621 2.8790894 7.2509003c1.1965332 1.698822 2.5024414 3.165985 3.9176636 4.4015045c1.4213257 1.2355042 2.8395996 2.4015198 4.254822 3.4980316c1.4212646 1.08107 2.7271729 2.362915 3.9176636 3.84552c1.1965332 1.4671631 2.1593018 3.5520935 2.8881836 6.254776c0.7288208 2.7026672 1.0932617 5.9536133 1.0932617 9.752792c0 8.4478 -1.0446777 14.733459 -3.1341553 18.856964c-2.0894165 4.123535 -4.51593 6.185272 -7.279602 6.185272c-1.864685 0 -3.6747437 -1.3513489 -5.4301147 -4.054016c-1.7492676 -2.7026672 -3.1280518 -5.8532104 -4.1363525 -9.45163l-0.1184082 -8.13121l-1.0568848 0.71813965l-0.06378174 15.080948c3.0977173 5.791443 6.7542114 8.687164 10.969543 8.687164c4.2213745 0 7.619751 -2.3243103 10.195129 -6.9729004c2.5753174 -4.64859 3.863037 -11.57518 3.863037 -20.779724c0 -6.826187 -0.69244385 -12.370544 -2.0773315 -16.633057c-1.3787842 -4.277954 -3.0490723 -7.320389 -5.0109863 -9.127319c-1.9558105 -1.8069458 -3.9146729 -3.4208221 -5.876526 -4.8416595c-1.9558105 -1.4208374 -3.6261597 -3.413086 -5.0109863 -5.976776c-1.3787842 -2.5636902 -2.0681763 -6.023117 -2.0681763 -10.378281c0 -7.505722 0.8199463 -13.127289 2.4599 -16.864716c1.6460571 -3.7528534 3.6808472 -5.6292877 6.104309 -5.6292877c2.4296265 0 5.0231934 2.6100159 7.7807617 7.8300476l0.5648804 11.235413l1.065979 -1.1351166l-0.6195679 -17.791351c-3.1341553 -1.9922485 -6.420166 -2.988388 -9.858032 -2.988388z" fill-rule="evenodd"></path><path stroke="#ead1dc" stroke-width="1.0" stroke-linejoin="round" stroke-linecap="butt" d="m21.429497 176.27277c3.6929436 0 6.7542095 3.2740936 9.183798 9.822296c2.6482487 7.1196136 3.9723568 19.219894 3.9723568 36.30081c0 16.41684 -0.9505615 28.656113 -2.851715 36.717804c-0.7835388 3.4131165 -1.8586254 6.092621 -3.2252617 8.038544c-1.3605518 1.9459229 -2.6664352 3.181427 -3.9176922 3.7065125c-1.2512188 0.52508545 -2.7697163 0.7876587 -4.5554543 0.7876587l-4.591898 0l0 -95.37363zm-13.374815 -2.131256l-0.054665565 2.131256l2.9610462 0.85713196c0.3765726 0.092666626 0.60132027 0.7567444 0.67420673 1.9922485l0 89.952835c-0.07288647 1.1428528 -0.29763412 1.7605896 -0.67420673 1.8532715l-2.9063807 0.99612427l-0.054665565 1.9922485l11.251973 -0.13897705l1.0568657 0c2.3506145 0 4.403595 -0.37838745 6.1589756 -1.1351318c3.954134 -1.8995972 6.8666 -6.455536 8.737362 -13.667816c2.125866 -8.262482 3.18882 -20.694794 3.18882 -37.296967c0 -16.78749 -1.5215225 -28.903198 -4.5645676 -36.347153c-3.0430431 -7.459381 -7.082201 -11.189072 -12.11751 -11.189072z" fill-rule="evenodd"></path><path stroke="#ead1dc" stroke-width="1.0" stroke-linejoin="round" stroke-linecap="butt" d="m57.59593 176.8519l8.728252 66.323715l-16.73674 0l8.008488 -66.323715zm-0.3917656 -2.7103882l-12.090179 94.93347c-0.1883049 1.1428528 -0.4130516 1.7605896 -0.6742058 1.8532715l-2.915493 0.99612427l-0.05466461 1.9922485l11.251972 -0.13897705c0.036445618 -1.328186 0.054668427 -2.0386047 0.054668427 -2.131256l-6.486969 -0.8571472l2.9610443 -24.764252l17.465614 0l3.0794907 23.188965c0 1.0502014 -0.14880371 1.6216125 -0.44643402 1.7142944l-2.9154968 0.99612427c-0.03643799 0.47875977 -0.05466461 1.1428223 -0.05466461 1.9922485l11.197311 -0.13897705c0.036445618 -1.328186 0.05466461 -2.0386047 0.05466461 -2.131256l-3.8630295 -0.5791626l-12.873711 -96.92572z" fill-rule="evenodd"></path><path stroke="#ead1dc" stroke-width="1.0" stroke-linejoin="round" stroke-linecap="butt" d="m80.71468 174.14151l-0.06377411 2.131256l2.9701538 0.85713196c0.37657166 0.092666626 0.601326 0.7104187 0.6742096 1.8532562l0 90.09183c-0.072883606 1.1428528 -0.29763794 1.7605896 -0.6742096 1.8532715l-2.9063797 0.99612427l-0.06377411 1.9922485l11.251976 -0.13897705c0.042526245 -1.328186 0.06377411 -2.0386047 0.06377411 -2.131256l-6.3867493 -0.8571472l-0.2824402 -92.66322l21.775078 95.65163l4.0907974 0l0 -96.50876l3.5805893 -0.99612427c-0.036445618 -1.328186 -0.05466461 -2.0386047 -0.05466461 -2.131256l-10.632431 0.13899231c0 0.8648529 0.018218994 1.5829926 0.05466461 2.154419l5.1476593 1.1351166c0.26119232 0.092666626 0.46772003 0.6100464 0.619545 1.5521088l0.2733307 90.670975l-21.775078 -95.65161z" fill-rule="evenodd"></path><path stroke="#ead1dc" stroke-width="1.0" stroke-linejoin="round" stroke-linecap="butt" d="m137.02605 174.14151c-5.4847565 0 -9.815468 4.934311 -12.992149 14.802948c-3.0187378 9.389862 -4.528122 22.486267 -4.528122 39.2892c0 7.582947 0.33407593 14.223816 1.0021973 19.922592c0.6742096 5.6987915 1.5063248 10.185242 2.4963913 13.459351c0.9900589 3.2740784 2.1927032 5.907257 3.6079178 7.899536c1.4213028 1.9922485 2.7636337 3.2972717 4.0270157 3.9150085c1.269455 0.61776733 2.7636414 0.92663574 4.4825745 0.92663574c1.7189331 0 3.9480896 -0.44787598 6.6874084 -1.3436279c2.745407 -0.91119385 4.4339447 -1.6524963 5.0656586 -2.2239075l-0.1639862 -1.9922485c-4.0331116 2.2702332 -7.8961334 3.405365 -11.589081 3.405365c-1.1601105 0 -2.21698 -0.25482178 -3.1705933 -0.76446533c-0.9475403 -0.52508545 -1.9801025 -1.6911011 -3.0977173 -3.4980469c-3.6929398 -5.976776 -5.5394287 -19.212173 -5.5394287 -39.706192c0 -16.895584 1.2299728 -29.798935 3.6899185 -38.710052c2.4660263 -8.926559 5.8067093 -13.389847 10.021996 -13.389847c2.6482544 0 5.4847717 2.6100159 8.509598 7.8300476l0.7288666 15.243103l1.0568695 -0.99612427l-0.6651001 -20.50174c-0.82606506 -0.75675964 -2.2200317 -1.5366669 -4.1819 -2.3397522c-1.9558258 -0.8185272 -3.7719269 -1.2277832 -5.4483337 -1.2277832z" fill-rule="evenodd"></path><path stroke="#ead1dc" stroke-width="1.0" stroke-linejoin="round" stroke-linecap="butt" d="m162.77281 174.14151l-11.251984 0.13899231l0.05467224 2.154419l2.9154816 0.6949768c0.37052917 0.092666626 0.5952759 0.7567444 0.6742096 1.9922485l0.05467224 0l0 89.952835l-0.05467224 0c-0.07896423 1.1428528 -0.30371094 1.7605896 -0.6742096 1.8532715l-2.9154816 0.99612427l-0.05467224 1.9922485l11.251984 -0.13897705c0.03643799 -1.328186 0.054656982 -2.0386047 0.054656982 -2.131256l-3.8083649 -0.5791626l0 -93.93733l3.8083649 -0.85713196c-0.03643799 -1.328186 -0.054656982 -2.0386047 -0.054656982 -2.131256z" fill-rule="evenodd"></path><path stroke="#ead1dc" stroke-width="1.0" stroke-linejoin="round" stroke-linecap="butt" d="m168.20735 174.14151l-0.06376648 2.131256l2.9701538 0.85713196c0.37657166 0.092666626 0.60131836 0.7104187 0.6742096 1.8532562l0 90.09183c-0.072891235 1.1428528 -0.29763794 1.7605896 -0.6742096 1.8532715l-2.9063873 0.99612427l-0.06376648 1.9922485l11.251968 -0.13897705c0.042526245 -1.328186 0.06378174 -2.0386047 0.06378174 -2.131256l-6.3867493 -0.8571472l-0.2824402 -92.66322l21.77507 95.65163l4.090805 0l0 -96.50876l3.5805817 -0.99612427c-0.03643799 -1.328186 -0.054656982 -2.0386047 -0.054656982 -2.131256l-10.632431 0.13899231c0 0.8648529 0.018218994 1.5829926 0.054656982 2.154419l5.1476593 1.1351166c0.2611847 0.092666626 0.46768188 0.6100464 0.6195526 1.5521088l0.27331543 90.670975l-21.77507 -95.65161z" fill-rule="evenodd"></path><path stroke="#ead1dc" stroke-width="1.0" stroke-linejoin="round" stroke-linecap="butt" d="m224.51874 174.14151c-5.4847717 0 -9.815491 4.934311 -12.992157 14.802948c-3.018753 9.389862 -4.528122 22.486267 -4.528122 39.2892c0 7.582947 0.33406067 14.223816 1.0021973 19.922592c0.6742096 5.6987915 1.5063477 10.185242 2.496399 13.459351c0.990036 3.2740784 2.192688 5.907257 3.6079102 7.899536c1.4213104 1.9922485 2.7636566 3.2972717 4.0270233 3.9150085c1.2694702 0.61776733 2.7636566 0.92663574 4.4825745 0.92663574c1.7189178 0 3.9480438 -0.44787598 6.6874084 -1.3436279c2.7454224 -0.91119385 4.4339905 -1.6524963 5.0656586 -2.2239075l0 -35.304688l2.2412872 -0.6949768c-0.03643799 -1.3281708 -0.05467224 -2.0463104 -0.05467224 -2.154419l-10.07666 0.16217041c0 0.84939575 0.018218994 1.5598145 0.05467224 2.1312408l4.0270233 0.6949768c0.44947815 0.20077515 0.67419434 0.8648529 0.67419434 1.9922638l-0.21865845 32.75644c-3.3224335 1.2200623 -5.843109 1.8301086 -7.5620575 1.8301086c-1.7189178 0 -3.0551758 -0.25482178 -4.008789 -0.76446533c-0.9475403 -0.52508545 -1.9801178 -1.6911011 -3.0977173 -3.4980469c-3.6929626 -5.976776 -5.5394287 -19.212173 -5.5394287 -39.706192c0 -16.895584 1.2299652 -29.798935 3.689911 -38.710052c2.4660187 -8.926559 5.8066864 -13.389847 10.022003 -13.389847c2.6482391 0 5.4847717 2.6100159 8.509598 7.8300476l0.7288666 15.243103l1.0568695 -0.99612427l-0.6651001 -20.50174c-0.8260498 -0.75675964 -2.2200165 -1.5366669 -4.1819 -2.3397522c-1.9558105 -0.8185272 -3.7719269 -1.2277832 -5.4483337 -1.2277832z" fill-rule="evenodd"></path><path stroke="#ead1dc" stroke-width="1.0" stroke-linejoin="round" stroke-linecap="butt" d="m267.9547 174.14151l-11.251953 0.13899231l0.054656982 2.154419l2.9154968 0.6949768c0.26116943 0.092666626 0.44641113 0.47103882 0.5557556 1.1351166l9.6302185 95.512634l3.471283 0l9.238434 -84.97218l8.445831 84.97218l3.4165955 0l11.087982 -96.64775l3.635254 -0.85713196c-0.036468506 -1.328186 -0.0546875 -2.0386047 -0.0546875 -2.131256l-10.969513 0.13899231l0.054656982 2.154419l5.2569885 1.1351166c0.34014893 0.092666626 0.5102234 0.6100464 0.5102234 1.5521088l-9.858002 91.25011l-9.848907 -96.23074l-0.2277832 1.1351166l0.17312622 -1.1351166l-0.8382263 0l-10.413757 95.929596l-9.293121 -92.802216l4.364105 -0.99612427c-0.03643799 -1.328186 -0.054656982 -2.0386047 -0.054656982 -2.131256z" fill-rule="evenodd"></path><path stroke="#ead1dc" stroke-width="1.0" stroke-linejoin="round" stroke-linecap="butt" d="m324.15567 174.14151l-11.251984 0.13899231l0.0546875 2.154419l2.9154663 0.6949768c0.37051392 0.092666626 0.59524536 0.7567444 0.67422485 1.9922485l0.054656982 0l0 89.952835l-0.054656982 0c-0.078948975 1.1428528 -0.30368042 1.7605896 -0.67422485 1.8532715l-2.9154663 0.99612427l-0.0546875 1.9922485l11.251984 -0.13897705c0.03643799 -1.328186 0.054656982 -2.0386047 0.054656982 -2.131256l-3.8083496 -0.5791626l0 -93.93733l3.8083496 -0.85713196c-0.03643799 -1.328186 -0.054656982 -2.0386047 -0.054656982 -2.131256z" fill-rule="evenodd"></path><path stroke="#ead1dc" stroke-width="1.0" stroke-linejoin="round" stroke-linecap="butt" d="m328.80667 174.14151l-0.06378174 1.7142639l-0.109313965 1.1351318l0.054656982 0l-0.5557556 17.652344l1.065979 1.1351166l0.8928528 -18.78746l9.630249 0l0 92.084076c-0.07897949 1.1428528 -0.30371094 1.7605896 -0.67422485 1.8532715l-2.9154663 0.99612427c-0.036468506 0.47875977 -0.0546875 1.1428223 -0.0546875 1.9922485l11.197327 -0.13897705c0.03643799 -1.328186 0.054656982 -2.0386047 0.054656982 -2.131256l-4.0816956 -0.5791626l0 -94.076324l9.79422 0l0.8928833 18.78746l1.120636 -1.1351166l-0.72888184 -20.50174l-25.410309 0l0 0.13899231l-0.10934448 -0.13899231z" fill-rule="evenodd"></path><path stroke="#ead1dc" stroke-width="1.0" stroke-linejoin="round" stroke-linecap="butt" d="m369.6693 174.14151l-11.251953 0.13899231l0.054656982 2.154419l2.906372 0.6949768c0.3765869 0.092666626 0.60131836 0.7104187 0.67422485 1.8532562l0 90.230804c-0.072906494 1.0502014 -0.29763794 1.6216125 -0.67422485 1.7142944l-2.906372 0.99612427l-0.054656982 1.9922485l11.251953 -0.13897705c0.036468506 -1.328186 0.0546875 -2.0386047 0.0546875 -2.131256l-4.1454773 -0.5791626l0 -45.265976l19.087372 0l0 43.273727c-0.072906494 1.1428528 -0.29458618 1.7605896 -0.6651001 1.8532715l-2.9154968 0.99612427c-0.03643799 0.47875977 -0.054656982 1.1428223 -0.054656982 1.9922485l11.197296 -0.13897705c0.03643799 -1.328186 0.054656982 -2.0386047 0.054656982 -2.131256l-4.09079 -0.5791626l0 -93.79834l3.5259094 -0.99612427c-0.03643799 -1.328186 -0.054656982 -2.0386047 -0.054656982 -2.131256l-10.632416 0.13899231c0 0.8648529 0.018218994 1.5829926 0.054656982 2.154419l2.9154968 0.6949768c0.37051392 0.092666626 0.5921936 0.7567444 0.6651001 1.9922485l0 43.852875l-19.087372 0l0 -45.70613l4.1454773 -0.99612427c-0.036468506 -1.328186 -0.0546875 -2.0386047 -0.0546875 -2.131256z" fill-rule="evenodd"></path><path stroke="#ead1dc" stroke-width="1.0" stroke-linejoin="round" stroke-linecap="butt" d="m413.05267 174.14151l-0.06378174 1.7142639l-0.10934448 1.1351318l0.0546875 0l-0.55578613 17.652344l1.065979 1.1351166l0.8928833 -18.78746l9.6302185 0l0 92.084076c-0.078948975 1.1428528 -0.30368042 1.7605896 -0.67419434 1.8532715l-2.9154968 0.99612427c-0.03643799 0.47875977 -0.054656982 1.1428223 -0.054656982 1.9922485l11.197296 -0.13897705c0.03643799 -1.328186 0.054656982 -2.0386047 0.054656982 -2.131256l-4.081665 -0.5791626l0 -94.076324l9.79422 0l0.8928528 18.78746l1.1206665 -1.1351166l-0.72888184 -20.50174l-25.41034 0l0 0.13899231l-0.109313965 -0.13899231z" fill-rule="evenodd"></path><path stroke="#ead1dc" stroke-width="1.0" stroke-linejoin="round" stroke-linecap="butt" d="m453.9153 174.14151l-11.251984 0.13899231l0.054656982 2.154419l2.9064026 0.6949768c0.3765869 0.092666626 0.60131836 0.7104187 0.67419434 1.8532562l0 90.230804c-0.07287598 1.0502014 -0.29760742 1.6216125 -0.67419434 1.7142944l-2.9064026 0.99612427l-0.054656982 1.9922485l11.251984 -0.13897705c0.03643799 -1.328186 0.054656982 -2.0386047 0.054656982 -2.131256l-4.145447 -0.5791626l0 -45.265976l19.087341 0l0 43.273727c-0.07287598 1.1428528 -0.29458618 1.7605896 -0.6651001 1.8532715l-2.9154968 0.99612427c-0.03643799 0.47875977 -0.054656982 1.1428223 -0.054656982 1.9922485l11.197296 -0.13897705c0.036468506 -1.328186 0.0546875 -2.0386047 0.0546875 -2.131256l-4.0908203 -0.5791626l0 -93.79834l3.52594 -0.99612427c-0.03643799 -1.328186 -0.054656982 -2.0386047 -0.054656982 -2.131256l-10.632446 0.13899231c0 0.8648529 0.018218994 1.5829926 0.054656982 2.154419l2.9154968 0.6949768c0.37051392 0.092666626 0.5922241 0.7567444 0.6651001 1.9922485l0 43.852875l-19.087341 0l0 -45.70613l4.145447 -0.99612427c-0.03643799 -1.328186 -0.054656982 -2.0386047 -0.054656982 -2.131256z" fill-rule="evenodd"></path><path stroke="#ead1dc" stroke-width="1.0" stroke-linejoin="round" stroke-linecap="butt" d="m481.39963 174.14151l-0.0546875 2.131256l2.9610596 0.85713196c0.3765869 0.092666626 0.60131836 0.7104187 0.67419434 1.8532562l0 90.09183c-0.07287598 1.1428528 -0.29760742 1.7605896 -0.67419434 1.8532715l-2.906372 0.99612427l-0.0546875 1.9922485l11.251984 -0.13897705l14.213013 0l0.8381958 -24.90326l-1.0568542 -0.71813965l-1.065979 22.772003l-16.736725 0l0 -45.127l14.158356 0l0.22775269 9.822296c0.5223694 -0.092666626 0.8017578 -0.13899231 0.8381958 -0.13899231l0 -24.324097l-0.8928528 0.27798462l-0.2277832 9.822311c0 0.5714264 -0.075927734 1.0270233 -0.22775269 1.3667755c-0.11340332 0.2522583 -0.23962402 0.3783722 -0.37872314 0.3783722c-0.039764404 0 -0.08053589 -0.010284424 -0.12237549 -0.030883789l-13.374817 0l0 -45.984116l15.224304 0l0.8928833 18.78746l1.120636 -1.1351166l-0.72888184 -20.0616l0.0546875 -0.44013977z" fill-rule="evenodd"></path><path stroke="#ead1dc" stroke-width="1.0" stroke-linejoin="round" stroke-linecap="butt" d="m537.87775 174.14151l-11.251953 0.13899231l0.054626465 2.154419l2.9155273 0.6949768c0.26116943 0.092666626 0.44641113 0.47103882 0.5557251 1.1351166l9.630249 95.512634l3.4712524 0l9.238464 -84.97218l8.445801 84.97218l3.416626 0l11.087952 -96.64775l3.635254 -0.85713196c-0.03643799 -1.328186 -0.054626465 -2.0386047 -0.054626465 -2.131256l-10.969543 0.13899231l0.054626465 2.154419l5.257019 1.1351166c0.34014893 0.092666626 0.5101929 0.6100464 0.5101929 1.5521088l-9.857971 91.25011l-9.848938 -96.23074l-0.22772217 1.1351166l0.1730957 -1.1351166l-0.8381958 0l-10.413818 95.929596l-9.293091 -92.802216l4.3641357 -0.99612427c-0.03643799 -1.328186 -0.0546875 -2.0386047 -0.0546875 -2.131256z" fill-rule="evenodd"></path><path stroke="#ead1dc" stroke-width="1.0" stroke-linejoin="round" stroke-linecap="butt" d="m593.52295 174.14151l-11.251953 0.13899231l0.054626465 2.154419l2.906372 0.6949768c0.3765869 0.092666626 0.6013794 0.7104187 0.6742554 1.8532562l0 90.230804c-0.07287598 1.0502014 -0.29766846 1.6216125 -0.6742554 1.7142944l-2.906372 0.99612427l-0.054626465 1.9922485l11.251953 -0.13897705c0.03643799 -1.328186 0.0546875 -2.0386047 0.0546875 -2.131256l-4.145508 -0.5791626l0 -45.265976l19.087402 0l0 43.273727c-0.07293701 1.1428528 -0.2946167 1.7605896 -0.6651001 1.8532715l-2.9155273 0.99612427c-0.03643799 0.47875977 -0.054626465 1.1428223 -0.054626465 1.9922485l11.197266 -0.13897705c0.03643799 -1.328186 0.0546875 -2.0386047 0.0546875 -2.131256l-4.0908203 -0.5791626l0 -93.79834l3.52594 -0.99612427c-0.03643799 -1.328186 -0.0546875 -2.0386047 -0.0546875 -2.131256l-10.632385 0.13899231c0 0.8648529 0.018188477 1.5829926 0.054626465 2.154419l2.9155273 0.6949768c0.3704834 0.092666626 0.5921631 0.7567444 0.6651001 1.9922485l0 43.852875l-19.087402 0l0 -45.70613l4.145508 -0.99612427c-0.03643799 -1.328186 -0.0546875 -2.0386047 -0.0546875 -2.131256z" fill-rule="evenodd"></path><path stroke="#ead1dc" stroke-width="1.0" stroke-linejoin="round" stroke-linecap="butt" d="m632.4233 174.14151l-11.252014 0.13899231l0.0546875 2.154419l2.9154663 0.6949768c0.37054443 0.092666626 0.5952759 0.7567444 0.6742554 1.9922485l0.054626465 0l0 89.952835l-0.054626465 0c-0.07897949 1.1428528 -0.30371094 1.7605896 -0.6742554 1.8532715l-2.9154663 0.99612427l-0.0546875 1.9922485l11.252014 -0.13897705c0.03643799 -1.328186 0.054626465 -2.0386047 0.054626465 -2.131256l-3.8083496 -0.5791626l0 -93.93733l3.8083496 -0.85713196c-0.03643799 -1.328186 -0.054626465 -2.0386047 -0.054626465 -2.131256z" fill-rule="evenodd"></path><path stroke="#ead1dc" stroke-width="1.0" stroke-linejoin="round" stroke-linecap="butt" d="m637.0742 174.14151l-0.06378174 1.7142639l-0.109313965 1.1351318l0.0546875 0l-0.55578613 17.652344l1.065979 1.1351166l0.8928833 -18.78746l9.630249 0l0 92.084076c-0.07897949 1.1428528 -0.30371094 1.7605896 -0.6742554 1.8532715l-2.9154663 0.99612427c-0.03643799 0.47875977 -0.0546875 1.1428223 -0.0546875 1.9922485l11.197327 -0.13897705c0.03643799 -1.328186 0.0546875 -2.0386047 0.0546875 -2.131256l-4.081726 -0.5791626l0 -94.076324l9.7942505 0l0.8928833 18.78746l1.1206055 -1.1351166l-0.72888184 -20.50174l-25.410278 0l0 0.13899231l-0.109375 -0.13899231z" fill-rule="evenodd"></path><path stroke="#ead1dc" stroke-width="1.0" stroke-linejoin="round" stroke-linecap="butt" d="m666.23846 174.14151l-0.06378174 1.7142639l-0.109313965 1.1351318l0.0546875 0l-0.55578613 17.652344l1.065979 1.1351166l0.8928833 -18.78746l9.630188 0l0 92.084076c-0.07891846 1.1428528 -0.3036499 1.7605896 -0.67419434 1.8532715l-2.9154663 0.99612427c-0.03643799 0.47875977 -0.0546875 1.1428223 -0.0546875 1.9922485l11.197327 -0.13897705c0.03643799 -1.328186 0.054626465 -2.0386047 0.054626465 -2.131256l-4.081665 -0.5791626l0 -94.076324l9.7942505 0l0.8928833 18.78746l1.1206055 -1.1351166l-0.72888184 -20.50174l-25.41034 0l0 0.13899231l-0.109313965 -0.13899231z" fill-rule="evenodd"></path><path stroke="#ead1dc" stroke-width="1.0" stroke-linejoin="round" stroke-linecap="butt" d="m707.65686 174.14151l-11.251953 0.13899231l0.0546875 2.154419l2.9154663 0.6949768c0.3704834 0.092666626 0.59521484 0.7567444 0.67419434 1.9922485l0.0546875 0l0 89.952835l-0.0546875 0c-0.07891846 1.1428528 -0.3036499 1.7605896 -0.67419434 1.8532715l-2.9154663 0.99612427l-0.0546875 1.9922485l11.251953 -0.13897705c0.036499023 -1.328186 0.0546875 -2.0386047 0.0546875 -2.131256l-3.8083496 -0.5791626l0 -93.93733l3.8083496 -0.85713196c-0.03643799 -1.328186 -0.0546875 -2.0386047 -0.0546875 -2.131256z" fill-rule="evenodd"></path><path stroke="#ead1dc" stroke-width="1.0" stroke-linejoin="round" stroke-linecap="butt" d="m713.14606 174.14151l-0.054626465 2.131256l2.9609985 0.85713196c0.3765869 0.092666626 0.60131836 0.7104187 0.67419434 1.8532562l0 90.09183c-0.07287598 1.1428528 -0.29760742 1.7605896 -0.67419434 1.8532715l-2.906372 0.99612427l-0.054626465 1.9922485l11.251953 -0.13897705l14.213013 0l0.8381958 -24.90326l-1.0568848 -0.71813965l-1.065979 22.772003l-16.736694 0l0 -45.127l14.158325 0l0.2277832 9.822296c0.52233887 -0.092666626 0.8017578 -0.13899231 0.8381958 -0.13899231l0 -24.324097l-0.8928833 0.27798462l-0.2277832 9.822311c0 0.5714264 -0.075927734 1.0270233 -0.22772217 1.3667755c-0.11340332 0.2522583 -0.23962402 0.3783722 -0.37872314 0.3783722c-0.039733887 0 -0.080566406 -0.010284424 -0.12237549 -0.030883789l-13.374817 0l0 -45.984116l15.224304 0l0.8928833 18.78746l1.1206055 -1.1351166l-0.7288208 -20.0616l0.054626465 -0.44013977z" fill-rule="evenodd"></path><path stroke="#ead1dc" stroke-width="1.0" stroke-linejoin="round" stroke-linecap="butt" d="m756.8046 176.27277c2.7636719 0 4.871277 2.0463104 6.322937 6.1389313c1.4577637 4.077179 2.1866455 10.100296 2.1866455 18.069336c0 4.077179 -0.33709717 8.277908 -1.0112915 12.602188c-0.66815186 4.308838 -1.97406 9.266327 -3.9177246 14.872452l-9.566467 0l0 -51.682907zm-13.320129 -2.131256l-0.0546875 2.131256l2.9610596 0.85713196c0.30371094 0.092666626 0.5101929 0.57141113 0.61950684 1.4362793l0 91.08794c-0.15185547 0.7567444 -0.3583374 1.1814575 -0.61950684 1.2741394l-2.906372 0.99612427l-0.0546875 1.9922485l11.251953 -0.13897705c0.03643799 -1.328186 0.0546875 -2.0386047 0.0546875 -2.131256l-3.9177246 -0.5791626l0 -40.9803l7.4436646 0l10.632385 43.829697l6.104309 -0.13897705c0.03643799 -1.328186 0.0546875 -2.0386047 0.0546875 -2.131256l-2.7423706 -0.44015503l-10.359131 -42.833588c1.4577637 -1.7142639 3.015747 -5.559784 4.673889 -11.53656c1.6642456 -5.976776 2.496399 -11.714188 2.496399 -17.212204c0 -8.4478 -1.0446777 -14.802948 -3.1341553 -19.06546c-2.0894165 -4.277939 -5.0565186 -6.416916 -8.901367 -6.416916z" fill-rule="evenodd"></path><path stroke="#ead1dc" stroke-width="1.0" stroke-linejoin="round" stroke-linecap="butt" d="m807.90826 173.86351c-3.4317627 0 -6.1741333 2.4246979 -8.227112 7.274063c-2.046936 4.8339386 -3.0703735 11.042374 -3.0703735 18.62532c0 4.3706055 0.36138916 8.123474 1.0841675 11.258575c0.72888184 3.1196594 1.6885376 5.536621 2.8790283 7.2509003c1.1965942 1.698822 2.5024414 3.165985 3.9177246 4.4015045c1.4212646 1.2355042 2.8395996 2.4015198 4.2547607 3.4980316c1.4213257 1.08107 2.727234 2.362915 3.9177246 3.84552c1.1965332 1.4671631 2.1593018 3.5520935 2.8881226 6.254776c0.72888184 2.7026672 1.0933228 5.9536133 1.0933228 9.752792c0 8.4478 -1.0447388 14.733459 -3.1341553 18.856964c-2.0894165 4.123535 -4.51593 6.185272 -7.279602 6.185272c-1.864685 0 -3.6747437 -1.3513489 -5.4301147 -4.054016c-1.7492676 -2.7026672 -3.1280518 -5.8532104 -4.1363525 -9.45163l-0.1184082 -8.13121l-1.0568848 0.71813965l-0.06378174 15.080948c3.0977173 5.791443 6.7542114 8.687164 10.969543 8.687164c4.2213745 0 7.619751 -2.3243103 10.195129 -6.9729004c2.5753174 -4.64859 3.862976 -11.57518 3.862976 -20.779724c0 -6.826187 -0.6923828 -12.370544 -2.0772705 -16.633057c-1.3787842 -4.277954 -3.0490723 -7.320389 -5.0109863 -9.127319c-1.9558105 -1.8069458 -3.9146729 -3.4208221 -5.876526 -4.8416595c-1.9558105 -1.4208374 -3.6261597 -3.413086 -5.0109863 -5.976776c-1.3787842 -2.5636902 -2.0681763 -6.023117 -2.0681763 -10.378281c0 -7.505722 0.8199463 -13.127289 2.4599 -16.864716c1.6460571 -3.7528534 3.6808472 -5.6292877 6.104309 -5.6292877c2.4296265 0 5.0231934 2.6100159 7.7807617 7.8300476l0.56481934 11.235413l1.065979 -1.1351166l-0.61950684 -17.791351c-3.1341553 -1.9922485 -6.420166 -2.988388 -9.858032 -2.988388z" fill-rule="evenodd"></path><path stroke="#ead1dc" stroke-width="1.0" stroke-linejoin="round" stroke-linecap="butt" d="m824.2067 174.14151l-0.06378174 1.7142639l-0.109375 1.1351318l0.0546875 0l-0.55578613 17.652344l1.065979 1.1351166l0.8928833 -18.78746l9.630249 0l0 92.084076c-0.07897949 1.1428528 -0.30371094 1.7605896 -0.67419434 1.8532715l-2.9155273 0.99612427c-0.03643799 0.47875977 -0.054626465 1.1428223 -0.054626465 1.9922485l11.197266 -0.13897705c0.03643799 -1.328186 0.0546875 -2.0386047 0.0546875 -2.131256l-4.081665 -0.5791626l0 -94.076324l9.794189 0l0.8928833 18.78746l1.1206665 -1.1351166l-0.72888184 -20.50174l-25.41034 0l0 0.13899231l-0.109313965 -0.13899231z" fill-rule="evenodd"></path><path stroke="#ead1dc" stroke-width="1.0" stroke-linejoin="round" stroke-linecap="butt" d="m868.5406 176.8519l8.7282715 66.323715l-16.736755 0l8.008484 -66.323715zm-0.39172363 -2.7103882l-12.09021 94.93347c-0.18829346 1.1428528 -0.4130249 1.7605896 -0.67419434 1.8532715l-2.9155273 0.99612427l-0.054626465 1.9922485l11.251953 -0.13897705c0.03643799 -1.328186 0.0546875 -2.0386047 0.0546875 -2.131256l-6.4869995 -0.8571472l2.9610596 -24.764252l17.465637 0l3.0794678 23.188965c0 1.0502014 -0.14880371 1.6216125 -0.44641113 1.7142944l-2.9155273 0.99612427c-0.03643799 0.47875977 -0.054626465 1.1428223 -0.054626465 1.9922485l11.197266 -0.13897705c0.03643799 -1.328186 0.0546875 -2.0386047 0.0546875 -2.131256l-3.863037 -0.5791626l-12.873718 -96.92572z" fill-rule="evenodd"></path><path stroke="#ead1dc" stroke-width="1.0" stroke-linejoin="round" stroke-linecap="butt" d="m905.0888 176.27277c2.7636108 0 4.871277 2.0463104 6.322998 6.1389313c1.4577026 4.077179 2.1865845 10.100296 2.1865845 18.069336c0 4.077179 -0.33709717 8.277908 -1.0112915 12.602188c-0.66815186 4.308838 -1.973999 9.266327 -3.9177246 14.872452l-9.566406 0l0 -51.682907zm-13.320129 -2.131256l-0.0546875 2.131256l2.9610596 0.85713196c0.3036499 0.092666626 0.5101929 0.57141113 0.61950684 1.4362793l0 91.08794c-0.15185547 0.7567444 -0.3583374 1.1814575 -0.61950684 1.2741394l-2.906372 0.99612427l-0.0546875 1.9922485l11.251953 -0.13897705c0.03643799 -1.328186 0.0546875 -2.0386047 0.0546875 -2.131256l-3.9176636 -0.5791626l0 -40.9803l7.4436035 0l10.632385 43.829697l6.104309 -0.13897705c0.036499023 -1.328186 0.0546875 -2.0386047 0.0546875 -2.131256l-2.7423706 -0.44015503l-10.359131 -42.833588c1.4577637 -1.7142639 3.015747 -5.559784 4.673889 -11.53656c1.6643066 -5.976776 2.496399 -11.714188 2.496399 -17.212204c0 -8.4478 -1.0447388 -14.802948 -3.1341553 -19.06546c-2.0894165 -4.277939 -5.0565186 -6.416916 -8.901367 -6.416916z" fill-rule="evenodd"></path><path stroke="#ead1dc" stroke-width="1.0" stroke-linejoin="round" stroke-linecap="butt" d="m939.4552 173.86351c-3.4317627 0 -6.1741333 2.4246979 -8.227112 7.274063c-2.046936 4.8339386 -3.0703735 11.042374 -3.0703735 18.62532c0 4.3706055 0.36138916 8.123474 1.0841675 11.258575c0.72888184 3.1196594 1.6885376 5.536621 2.8790894 7.2509003c1.1965332 1.698822 2.5024414 3.165985 3.9176636 4.4015045c1.4213257 1.2355042 2.8395996 2.4015198 4.254822 3.4980316c1.4212646 1.08107 2.7271729 2.362915 3.9176636 3.84552c1.1965332 1.4671631 2.1593018 3.5520935 2.8881836 6.254776c0.7288208 2.7026672 1.0932617 5.9536133 1.0932617 9.752792c0 8.4478 -1.0446777 14.733459 -3.1341553 18.856964c-2.0894165 4.123535 -4.51593 6.185272 -7.279602 6.185272c-1.864685 0 -3.6747437 -1.3513489 -5.4301147 -4.054016c-1.7492676 -2.7026672 -3.1280518 -5.8532104 -4.1363525 -9.45163l-0.1184082 -8.13121l-1.0568848 0.71813965l-0.06378174 15.080948c3.0977173 5.791443 6.7542114 8.687164 10.969543 8.687164c4.2213745 0 7.619751 -2.3243103 10.195129 -6.9729004c2.5753174 -4.64859 3.863037 -11.57518 3.863037 -20.779724c0 -6.826187 -0.69244385 -12.370544 -2.0773315 -16.633057c-1.3787842 -4.277954 -3.0490723 -7.320389 -5.0109863 -9.127319c-1.9558105 -1.8069458 -3.9146729 -3.4208221 -5.876526 -4.8416595c-1.9558105 -1.4208374 -3.6261597 -3.413086 -5.0109863 -5.976776c-1.3787842 -2.5636902 -2.0681763 -6.023117 -2.0681763 -10.378281c0 -7.505722 0.8199463 -13.127289 2.4599 -16.864716c1.6460571 -3.7528534 3.6808472 -5.6292877 6.104309 -5.6292877c2.4296265 0 5.0231934 2.6100159 7.7807617 7.8300476l0.5648804 11.235413l1.065979 -1.1351166l-0.6195679 -17.791351c-3.1341553 -1.9922485 -6.420166 -2.988388 -9.858032 -2.988388z" fill-rule="evenodd"></path></g><g mask="url(#mask-p.2)"><use xlink:href="#p.2" transform="matrix(1.0 0.0 0.0 -1.0 0.0 749.6686929129978)"></use></g><defs><mask id="mask-p.2" maskUnits="userSpaceOnUse" x="119.78611067445885" y="374.8343464564989" width="735.0305490012153" height="100.48556737103797"><linearGradient gradientUnits="userSpaceOnUse" id="gradient-p.2" x1="119.78611068409094" y1="374.8316856532055" x2="119.78589242424898" y2="435.1246249528403"><stop offset="0%" stop-color="#ffffff" stop-opacity="0.5799999833106995"></stop><stop offset="100%" stop-color="#ffffff" stop-opacity="0.0"></stop></linearGradient><rect fill="url(#gradient-p.2)" x="119.78611067445885" y="374.8343464564989" width="735.0305490012153" height="100.48556737103797"></rect></mask></defs><g id="p.2"><path fill="#d100d1" d="m151.44922 278.274c-9.67424 0 -17.302002 2.142517 -22.8833 6.4275513c-5.581299 4.285034 -8.371941 9.409607 -8.371941 15.373779c0 7.3052673 2.726242 12.696991 8.178734 16.17517c2.7190857 1.7445374 5.5955963 3.151062 8.629547 4.2196045c3.0339355 1.068512 7.913971 2.3278809 14.640167 3.7780151c6.726166 1.4392395 11.91391 3.1292725 15.563232 5.0700684c3.6493073 1.9407959 5.4739532 4.7375183 5.4739532 8.390167c0 3.6526184 -1.6958466 6.383911 -5.08757 8.193878c-3.3773804 1.7990723 -7.2628174 2.698578 -11.656311 2.698578c-6.683243 0 -13.037323 -2.1752014 -19.062271 -6.5256653c-6.0249176 -4.3504333 -10.969391 -9.442322 -14.833366 -15.275635l-2.2539825 0l1.330925 23.911102l1.8461227 0c1.1448898 -2.006195 2.332718 -3.0093079 3.5634384 -3.0093079c0.7012253 0 4.278961 0.5015259 10.733261 1.5046387c6.468567 1.0031433 12.207275 1.5046692 17.21614 1.5046692c9.674255 0 17.473755 -2.1915588 23.398514 -6.5747375c5.9390717 -4.383148 8.9086 -10.194641 8.9086 -17.43451c0 -4.415863 -1.1806488 -8.232025 -3.541977 -11.448547c-0.9731293 -1.4065247 -2.3183746 -2.6931152 -4.0357056 -3.8598022c-1.7173157 -1.1775513 -3.3487701 -2.1534119 -4.8943634 -2.9275513c-1.5312653 -0.7741394 -3.506195 -1.5101013 -5.924759 -2.2079163c-2.4185638 -0.70874023 -4.443573 -1.264801 -6.0750275 -1.6682434c-1.6171265 -0.40341187 -5.023163 -1.1394043 -10.218063 -2.2079163c-5.1805725 -1.0685425 -9.552597 -2.4532776 -13.116043 -4.1542053c-3.5634308 -1.7118225 -5.345154 -4.1596375 -5.345154 -7.3434143c0 -3.1837769 1.4954987 -5.7297363 4.486496 -7.6378174c2.9909973 -1.908081 7.191284 -2.862152 12.600845 -2.862152c5.409561 0 10.418411 1.7608948 15.026566 5.282715c4.622452 3.5108643 9.044556 8.177521 13.266312 13.999939l2.103714 0l-0.9230499 -20.296661l-1.4382629 0c-0.97314453 1.3411255 -2.0750885 2.0116882 -3.3058472 2.0116882c-1.2307434 0 -4.371994 -0.5179138 -9.423798 -1.5537415c-5.0517883 -1.0358276 -9.91037 -1.5537415 -14.575775 -1.5537415z" fill-rule="evenodd"></path><path fill="#d100d1" d="m192.7379 301.87436l0 1.8154297l7.3844757 0l0 30.240509c0 11.18689 6.812042 16.780304 20.436127 16.780304c5.4524994 0 9.559753 -0.7196045 12.321777 -2.158844c2.7763367 -1.43927 4.865738 -3.5 6.2682343 -6.1822205l1.4597168 7.3434143l30.0746 0l0 -1.8153992l-7.2556763 0l0 -46.023193l-30.611267 0l0 1.8154297l6.0750275 0l0 30.747528c0 3.6853333 -0.88012695 6.5693054 -2.6403809 8.651825c-1.7602539 2.0716553 -3.763794 3.107483 -6.0106354 3.107483c-2.2325134 0 -3.7280273 -0.6378479 -4.486496 -1.9135437c-0.7441864 -1.2756958 -1.1162567 -3.9197693 -1.1162567 -7.9322205l0 -34.4765z" fill-rule="evenodd"></path><path fill="#d100d1" d="m321.19608 300.68045c-0.88726807 1.264801 -1.6386108 2.1315918 -2.2539673 2.6004639c-0.61538696 0.46884155 -1.3666992 0.7032471 -2.2539978 0.7032471c-0.8729553 0 -2.1394958 -0.26712036 -3.7995605 -0.8013916c-4.579529 -1.537384 -9.023102 -2.3060608 -13.330719 -2.3060608c-7.026703 0 -12.65094 1.5591736 -16.87268 4.6775513c-4.2217712 3.1074524 -6.3326416 7.278015 -6.3326416 12.511627c0 5.2227173 2.418579 9.03891 7.255707 11.448547c4.0357056 2.0062256 9.044556 3.6144714 15.02655 4.8247375c5.366638 0.80685425 9.760101 1.9462585 13.18045 3.418213c2.203888 0.9377136 3.3058472 2.3442383 3.3058472 4.219635c0 4.3504333 -4.486511 6.5256653 -13.459503 6.5256653c-5.7959595 0 -10.633087 -1.1721191 -14.511383 -3.5163574c-3.8639832 -2.3442078 -6.9408264 -6.4275208 -9.230591 -12.249939l-1.5670776 0l0 17.974213l1.5670776 0c1.8604431 -2.4750671 3.7566223 -3.7125854 5.688629 -3.7125854c0.61538696 0 1.445404 0.26712036 2.4901123 0.8013916c5.1090393 1.9407959 10.389801 2.9111938 15.842285 2.9111938c7.64209 0 13.659851 -1.4555969 18.053345 -4.366791c4.4078064 -2.9111938 6.6116943 -7.196228 6.6116943 -12.855103c0 -5.658844 -2.418579 -9.763977 -7.2556763 -12.315369c-2.3756409 -1.1993713 -4.887207 -2.218811 -7.5347595 -3.0583801c-2.6332397 -0.8395691 -6.9408264 -1.8317871 -12.922852 -2.9766235c-0.51519775 -0.06542969 -1.323761 -0.22897339 -2.4257202 -0.49066162c-1.1019287 -0.272583 -1.9176636 -0.49066162 -2.447174 -0.6542053c-0.5295105 -0.17443848 -1.1878357 -0.4088745 -1.9749146 -0.7032471c-0.7871094 -0.30529785 -1.3595581 -0.58880615 -1.7173157 -0.85046387c-0.3577881 -0.27261353 -0.84439087 -0.6923828 -1.4597473 -1.2593689c-0.61535645 -0.56695557 -0.92303467 -1.3574524 -0.92303467 -2.37146c0 -1.6682434 1.0089111 -3.052948 3.026764 -4.1542053c2.0321655 -1.1121521 5.116211 -1.6682129 9.252075 -1.6682129c9.402344 0 16.350311 4.355896 20.843994 13.0677185l1.5670471 0l0 -15.373779z" fill-rule="evenodd"></path><path fill="#d100d1" d="m366.0288 327.69904l0 9.355103c0 3.0093384 -0.5939026 5.3699036 -1.7817383 7.081726c-1.1878052 1.711853 -2.4614868 2.567749 -3.821045 2.567749c-1.3595276 0 -2.2825928 -0.5015564 -2.769165 -1.5046692c-0.48657227 -1.0140076 -0.7298584 -3.2601013 -0.7298584 -6.7382812l0 -1.6027832c0 -6.105896 2.7262573 -9.158844 8.178741 -9.158844zm88.63641 -26.822327c-5.896118 0 -10.296753 0.9376831 -13.201904 2.8130798c-2.890808 1.8753662 -5.0446167 4.355896 -6.461426 7.441559l0 -9.256989l-31.770447 0l0 1.8154297l7.2556763 0l0 44.207764l-7.2556763 0l0 1.8153992l37.459076 0l0 -1.8153992l-5.688629 0l0 -27.721863c0 -4.023346 1.0733337 -7.441559 3.2200012 -10.254639c2.1609497 -2.8130493 4.651062 -4.2196045 7.470337 -4.2196045c1.8461304 0 3.119812 0.58877563 3.821045 1.7663574c0.7012329 1.1666565 1.0518494 3.7616577 1.0518494 7.7850037l0 32.644745l-5.388092 0l0 1.8153992l37.308807 0l0 -1.8153992l-7.384491 0l0 -30.24054c0 -11.186859 -6.812042 -16.780304 -20.436127 -16.780304zm-91.79199 0c-18.375336 0 -27.563019 4.1214905 -27.563019 12.364441c0 5.56073 3.7781067 8.341064 11.33432 8.341064c3.3344727 0 6.103668 -0.7196045 8.307556 -2.158844c2.203888 -1.4501648 3.3058472 -3.1619873 3.3058472 -5.135498c0 -1.9735107 -0.35064697 -3.6635437 -1.0518799 -5.0700684l-3.3058472 0c-0.52948 -1.1339722 -0.7942505 -2.2515564 -0.7942505 -3.3528137c0 -1.1121216 0.6368408 -1.9844055 1.9105225 -2.6167908c1.2736816 -0.64331055 2.704773 -0.9649658 4.2933044 -0.9649658c2.6332092 0 4.407776 1.0903625 5.3237 3.2710266c0.9302063 2.1697693 1.3953247 6.438446 1.3953247 12.80603l0 7.7359314l-3.821045 0c-10.289612 0 -17.917389 0.88864136 -22.8833 2.6658936c-4.9659424 1.7772522 -7.448883 5.0427856 -7.448883 9.796692c0 8.101196 6.5043335 12.151794 19.513062 12.151794c4.393463 0 7.735077 -0.5996704 10.024872 -1.7990417c2.289734 -1.2102661 4.00708 -3.0856628 5.151947 -5.6261597c1.5742188 4.9501343 7.64209 7.4252014 18.203613 7.4252014c5.7959595 0 9.967621 -1.1012268 12.514984 -3.303711c2.5473633 -2.213379 3.999939 -6.2694397 4.3576965 -12.168182l-1.9749146 -0.09811401c-0.5295105 6.901825 -2.2897644 10.352753 -5.2807617 10.352753c-2.5473633 0 -3.821045 -1.7445374 -3.821045 -5.233612l0 -20.394775c0 -7.228943 -2.00354 -12.200897 -6.01062 -14.9158325c-3.9927673 -2.7149353 -11.219849 -4.072418 -21.681183 -4.072418z" fill-rule="evenodd"></path><path fill="#d100d1" d="m541.4463 297.55664l11.484558 26.331665l-23.892212 0l12.407654 -26.331665zm5.7959595 -18.791992l-33.616577 69.03476l-6.203827 0l0 1.9135437l20.178497 0l0 -1.9135437l-9.896057 0l10.153687 -21.703186l26.124756 0l9.617004 21.703186l-9.359436 0l0 1.9135437l43.12628 0l0 -1.9135437l-6.0750732 0l-33.230164 -69.03476zm51.58258 23.10971l0 1.8154297l5.409607 0l22.539856 46.023163l11.613342 0l-2.8979492 6.2312927c-2.5473633 5.56073 -5.230713 9.698547 -8.049988 12.413483c-2.8192139 2.7149658 -6.0320435 4.072418 -9.638428 4.072418c-1.8461304 0 -3.0339355 -0.5069885 -3.5634766 -1.5210266c-0.51519775 -1.0031128 -0.42211914 -2.273346 0.27911377 -3.81073l4.6152954 0c0.52948 -1.4065247 0.7942505 -2.6113586 0.7942505 -3.6144714c0 -4.6230164 -3.649292 -6.93454 -10.947937 -6.93454c-3.1627197 0 -5.717224 0.7359619 -7.663513 2.2079468c-1.9320068 1.4719543 -2.8980103 3.6144714 -2.8980103 6.4275208c0 2.8130798 1.4954834 5.1246033 4.486511 6.9345703c2.9909668 1.8099365 7.076782 2.7149353 12.257385 2.7149353c5.1948853 0 9.59552 -1.2593384 13.201904 -3.7780151c3.6063843 -2.507782 6.8621216 -6.907318 9.767273 -13.198547l24.66504 -54.168l6.59021 0l0 -1.8154297l-18.611511 0l0 1.8154297l8.844238 0l-15.305603 33.36435l-14.361145 -33.36435l7.1054077 0l0 -1.8154297z" fill-rule="evenodd"></path><path fill="#d100d1" d="m705.11865 327.69904l0 9.355103c0 3.0093384 -0.5939331 5.3699036 -1.7817383 7.081726c-1.1878052 1.711853 -2.4614868 2.567749 -3.821045 2.567749c-1.3595581 0 -2.2825928 -0.5015564 -2.769165 -1.5046692c-0.48657227 -1.0140076 -0.7298584 -3.2601013 -0.7298584 -6.7382812l0 -1.6027832c0 -6.105896 2.7262573 -9.158844 8.178711 -9.158844zm36.408386 -53.35025l0 1.8153992l7.770874 0l0 71.73337l-7.2556763 0l0 1.8153992l39.17639 0l0 -1.8153992l-7.3845215 0l0 -73.54877zm-39.563965 26.527924c-18.375366 0 -27.56305 4.1214905 -27.56305 12.364441c0 5.56073 3.7781372 8.341064 11.334351 8.341064c3.3344727 0 6.1036377 -0.7196045 8.307556 -2.158844c2.2038574 -1.4501648 3.3058472 -3.1619873 3.3058472 -5.135498c0 -1.9735107 -0.35064697 -3.6635437 -1.0518799 -5.0700684l-3.3058472 0c-0.529541 -1.1339722 -0.7942505 -2.2515564 -0.7942505 -3.3528137c0 -1.1121216 0.6368408 -1.9844055 1.9105225 -2.6167908c1.2736816 -0.64331055 2.704773 -0.9649658 4.293274 -0.9649658c2.6332397 0 4.407837 1.0903625 5.3237305 3.2710266c0.9301758 2.1697693 1.3953247 6.438446 1.3953247 12.80603l0 7.7359314l-3.821045 0c-10.289612 0 -17.91742 0.88864136 -22.8833 2.6658936c-4.9659424 1.7772522 -7.4489136 5.0427856 -7.4489136 9.796692c0 8.101196 6.5043335 12.151794 19.513062 12.151794c4.3934937 0 7.7351074 -0.5996704 10.024902 -1.7990417c2.289734 -1.2102661 4.00708 -3.0856628 5.1519165 -5.6261597c1.5742188 4.9501343 7.64209 7.4252014 18.203613 7.4252014c5.7959595 0 9.967651 -1.1012268 12.515015 -3.303711c2.5473633 -2.213379 3.999939 -6.2694397 4.357666 -12.168182l-1.9749146 -0.09811401c-0.52948 6.901825 -2.289734 10.352753 -5.2807617 10.352753c-2.5473633 0 -3.821045 -1.7445374 -3.821045 -5.233612l0 -20.394775c0 -7.228943 -2.00354 -12.200897 -6.01062 -14.9158325c-3.9927368 -2.7149353 -11.219849 -4.072418 -21.681152 -4.072418z" fill-rule="evenodd"></path><path fill="#d100d1" d="m819.2037 327.69904l0 9.355103c0 3.0093384 -0.5938721 5.3699036 -1.7816772 7.081726c-1.1878052 1.711853 -2.4614868 2.567749 -3.821045 2.567749c-1.3595581 0 -2.2825928 -0.5015564 -2.769165 -1.5046692c-0.4866333 -1.0140076 -0.7298584 -3.2601013 -0.7298584 -6.7382812l0 -1.6027832c0 -6.105896 2.7261963 -9.158844 8.178711 -9.158844zm-3.1555176 -26.822327c-18.375366 0 -27.56305 4.1214905 -27.56305 12.364441c0 5.56073 3.7781372 8.341064 11.334351 8.341064c3.3344116 0 6.1036377 -0.7196045 8.307495 -2.158844c2.2039185 -1.4501648 3.3058472 -3.1619873 3.3058472 -5.135498c0 -1.9735107 -0.35058594 -3.6635437 -1.0518188 -5.0700684l-3.3058472 0c-0.529541 -1.1339722 -0.7942505 -2.2515564 -0.7942505 -3.3528137c0 -1.1121216 0.6368408 -1.9844055 1.9105225 -2.6167908c1.2736206 -0.64331055 2.704773 -0.9649658 4.293274 -0.9649658c2.6332397 0 4.407837 1.0903625 5.3237305 3.2710266c0.9301758 2.1697693 1.3952637 6.438446 1.3952637 12.80603l0 7.7359314l-3.820984 0c-10.289612 0 -17.91742 0.88864136 -22.883362 2.6658936c-4.9658813 1.7772522 -7.4488525 5.0427856 -7.4488525 9.796692c0 8.101196 6.5043335 12.151794 19.513062 12.151794c4.3934937 0 7.7351074 -0.5996704 10.024841 -1.7990417c2.289795 -1.2102661 4.007141 -3.0856628 5.1519775 -5.6261597c1.5742188 4.9501343 7.64209 7.4252014 18.203613 7.4252014c5.7959595 0 9.967651 -1.1012268 12.515015 -3.303711c2.5473022 -2.213379 3.999878 -6.2694397 4.357666 -12.168182l-1.9749146 -0.09811401c-0.52948 6.901825 -2.289734 10.352753 -5.2807617 10.352753c-2.5473633 0 -3.821045 -1.7445374 -3.821045 -5.233612l0 -20.394775c0 -7.228943 -2.00354 -12.200897 -6.01062 -14.9158325c-3.9927979 -2.7149353 -11.219849 -4.072418 -21.681152 -4.072418z" fill-rule="evenodd"></path></g></g></svg>

